HIERARCHY
ROOT Hips
{
    OFFSET 0.000000 0.000000 0.000000
    CHANNELS 6 Xposition Yposition Zposition Zrotation Xrotation Yrotation
    JOINT Spine
    {
        OFFSET -0.000000 8.505030 0.000000
        CHANNELS 3 Zrotation Xrotation Yrotation
        JOINT Spine1
        {
            OFFSET -0.000000 25.070629 0.000000
            CHANNELS 3 Zrotation Xrotation Yrotation
            JOINT Neck
            {
                OFFSET -0.000000 24.967667 2.269788
                CHANNELS 3 Zrotation Xrotation Yrotation
                JOINT Head
                {
                    OFFSET -0.000000 14.520781 -2.074397
                    CHANNELS 3 Zrotation Xrotation Yrotation
                    End Site
                    {
                        OFFSET -0.000000 25.929966 0.000000
                    }
                }
            }
            JOINT LeftShoulder
            {
                OFFSET 4.117346 22.983784 -0.389865
                CHANNELS 3 Zrotation Xrotation Yrotation
                JOINT LeftArm
                {
                    OFFSET 11.957758 0.000000 0.000000
                    CHANNELS 3 Zrotation Xrotation Yrotation
                    JOINT LeftForeArm
                    {
                        OFFSET 31.907600 0.000000 0.000000
                        CHANNELS 3 Zrotation Xrotation Yrotation
                        JOINT LeftHand
                        {
                            OFFSET 28.601147 0.000000 0.000000
                            CHANNELS 3 Zrotation Xrotation Yrotation
                            End Site
                            {
                                OFFSET 15.557981 0.000000 0.000000
                            }
                        }
                    }
                }
            }
            JOINT RightShoulder
            {
                OFFSET -4.061940 22.983784 -0.389865
                CHANNELS 3 Zrotation Xrotation Yrotation
                JOINT RightArm
                {
                    OFFSET -11.957758 0.000000 0.000000
                    CHANNELS 3 Zrotation Xrotation Yrotation
                    JOINT RightForeArm
                    {
                        OFFSET -31.907600 0.000000 0.000000
                        CHANNELS 3 Zrotation Xrotation Yrotation
                        JOINT RightHand
                        {
                            OFFSET -28.601147 0.000000 0.000000
                            CHANNELS 3 Zrotation Xrotation Yrotation
                            End Site
                            {
                                OFFSET -15.557981 0.000000 0.000000
                            }
                        }
                    }
                }
            }
        }
    }
    JOINT LeftUpLeg
    {
        OFFSET 10.371986 0.000000 0.000000
        CHANNELS 3 Zrotation Xrotation Yrotation
        JOINT LeftLeg
        {
            OFFSET -0.000000 -42.486427 0.000000
            CHANNELS 3 Zrotation Xrotation Yrotation
            JOINT LeftFoot
            {
                OFFSET -0.000000 -48.322342 0.000000
                CHANNELS 3 Zrotation Xrotation Yrotation
                JOINT LeftToeBase
                {
                    OFFSET -0.000000 -6.741791 15.557981
                    CHANNELS 3 Zrotation Xrotation Yrotation
                    End Site
                    {
                        OFFSET -0.000000 0.000000 4.148795
                    }
                }
            }
        }
    }
    JOINT RightUpLeg
    {
        OFFSET -10.371986 0.000000 0.000000
        CHANNELS 3 Zrotation Xrotation Yrotation
        JOINT RightLeg
        {
            OFFSET -0.000000 -42.486427 0.000000
            CHANNELS 3 Zrotation Xrotation Yrotation
            JOINT RightFoot
            {
                OFFSET -0.000000 -48.322342 0.000000
                CHANNELS 3 Zrotation Xrotation Yrotation
                JOINT RightToeBase
                {
                    OFFSET -0.000000 -6.741791 15.557981
                    CHANNELS 3 Zrotation Xrotation Yrotation
                    End Site
                    {
                        OFFSET -0.000000 0.000000 4.148795
                    }
                }
            }
        }
    }
}
MOTION
Frames:    7
Frame Time:    0.008333
59.497581    99.312660    33.840584    -0.980899    -1.436693    90.331299    1.173611    -5.822085    1.428158    1.612743    -10.030746    1.510061    -7.493645    31.453718    -9.460560    13.414994    -1.085171    -8.956404    12.834546    1.102383    -13.141809    -13.233657    -2.815998    -0.835667    -6.110531    -1.872393    31.993984    0.956459    -0.103411    1.948558    -14.159270    3.077930    -7.776263    17.831303    -1.845005    17.946058    6.261003    5.948319    -21.616953    -3.324613    7.403913    -9.250453    5.184944    10.638724    1.815547    -2.058592    -6.485797    4.607025    -6.560852    -0.692216    7.649942    0.000000    0.000000    0.000000    -1.160711    10.259059    5.493419    1.174844    -7.340698    -0.706715    5.431997    0.160646    -15.383201    0.000000    0.000000    0.000000    
59.500790    99.312820    33.847164    -0.961363    -1.440933    90.329590    1.174391    -5.811213    1.432334    1.602697    -10.049868    1.513662    -7.432680    31.576107    -9.460033    13.412593    -1.287664    -8.933143    12.842766    1.119473    -13.169210    -13.240286    -2.840161    -0.833516    -6.095398    -1.901921    32.001217    0.957106    -0.136702    1.931175    -14.138098    3.086413    -7.777262    17.876972    -1.568598    17.975422    6.061648    5.801963    -21.678083    -3.249503    7.216315    -9.210497    5.190402    10.659400    1.785976    -2.052042    -6.490574    4.649382    -6.473804    -0.646503    7.597768    0.000000    0.000000    0.000000    -1.152715    10.293962    5.487626    1.173511    -7.362794    -0.710047    5.447712    0.172386    -15.375959    0.000000    0.000000    0.000000    
59.503258    99.311569    33.858135    -0.948663    -1.443531    90.323128    1.170662    -5.822275    1.434968    1.604606    -10.032195    1.516280    -7.461620    31.614426    -9.445313    13.488145    -1.370241    -8.903994    12.881852    1.014676    -13.191077    -13.310082    -2.828183    -0.800498    -6.080207    -1.871186    32.006924    0.867757    -0.111634    1.865598    -14.140978    3.093547    -7.787776    17.895184    -1.570987    17.994312    6.049035    5.762205    -21.690542    -3.199749    7.171874    -9.243107    5.199898    10.674342    1.775372    -2.053015    -6.489178    4.657908    -6.450850    -0.652339    7.597120    0.000000    0.000000    0.000000    -1.142449    10.299486    5.375368    1.185434    -7.348819    -0.596593    5.433852    0.164584    -15.365254    0.000000    0.000000    0.000000    
59.499966    99.311607    33.865311    -0.945664    -1.444048    90.315620    1.166253    -5.822588    1.440180    1.601076    -10.051694    1.521690    -7.353328    31.564632    -9.440287    13.361431    -1.333747    -8.901999    12.886282    1.068415    -13.234789    -13.298393    -2.911334    -0.780792    -6.076128    -1.861090    31.998882    0.843482    -0.103476    1.877645    -14.135448    3.090908    -7.772574    17.911674    -1.609541    17.968868    6.066999    5.766622    -21.706114    -3.222954    7.181800    -9.221247    5.198014    10.670600    1.770062    -2.041096    -6.475884    4.655564    -6.473466    -0.664470    7.618299    0.000000    0.000000    0.000000    -1.136841    10.311863    5.417635    1.181169    -7.373723    -0.664700    5.424777    0.184192    -15.345566    0.000000    0.000000    0.000000    
59.499180    99.310806    33.872253    -0.939494    -1.438232    90.302177    1.160780    -5.815900    1.439832    1.590884    -10.080615    1.521155    -7.394139    31.791159    -9.427420    13.497397    -1.650178    -8.854742    12.882777    1.093232    -13.236040    -13.299816    -2.893823    -0.774985    -6.073898    -1.859210    31.977364    0.843607    -0.103606    1.886690    -14.121724    3.091061    -7.757384    17.923439    -1.615862    17.966743    6.066424    5.735013    -21.706654    -3.218200    7.150557    -9.247973    5.197034    10.674854    1.762233    -2.048180    -6.471637    4.664012    -6.467722    -0.663270    7.636124    0.000000    0.000000    0.000000    -1.143755    10.321677    5.414984    1.184085    -7.382187    -0.627466    5.402442    0.188461    -15.360535    0.000000    0.000000    0.000000    
59.498280    99.309990    33.882034    -0.934208    -1.434085    90.290771    1.142286    -5.830198    1.438859    1.606821    -10.073048    1.522288    -7.374638    31.860014    -9.416177    13.494178    -1.771703    -8.831722    12.867887    1.104960    -13.248119    -13.280404    -2.947763    -0.765270    -6.092988    -1.819077    31.973761    0.846676    -0.057875    1.931377    -14.122203    3.116733    -7.740223    17.935390    -1.674195    17.966782    6.080812    5.716486    -21.716793    -3.324524    7.142589    -9.202308    5.194992    10.681732    1.742682    -2.041258    -6.468810    4.674114    -6.482518    -0.667443    7.654199    0.000000    0.000000    0.000000    -1.141276    10.332679    5.409110    1.181760    -7.400229    -0.631781    5.384863    0.200217    -15.340849    0.000000    0.000000    0.000000    
59.494793    99.309418    33.888180    -0.930109    -1.420843    90.283562    1.140584    -5.836931    1.436569    1.582996    -10.073156    1.518008    -7.348987    31.929348    -9.405218    13.489461    -1.894806    -8.808068    12.859280    1.115727    -13.254841    -13.264254    -2.956578    -0.750852    -6.098997    -1.798472    31.960648    0.865148    -0.037037    1.937367    -14.118134    3.122960    -7.730364    17.965223    -1.679405    17.970503    6.067418    5.711361    -21.719404    -3.351562    7.137304    -9.205055    5.177762    10.684429    1.691197    -2.026505    -6.472077    4.758290    -6.457885    -0.650350    7.632926    0.000000    0.000000    0.000000    -1.157117    10.348141    5.453940    1.186662    -7.424623    -0.692906    5.406729    0.198717    -15.329969    0.000000    0.000000    0.000000    
